<?xml version="1.0" standalone="no"?>
<!DOCTYPE svg PUBLIC "-//W3C//DTD SVG 20010904//EN"
 "http://www.w3.org/TR/2001/REC-SVG-20010904/DTD/svg10.dtd">
<svg version="1.0" xmlns="http://www.w3.org/2000/svg"
 width="67.000000pt" height="74.000000pt" viewBox="0 0 67.000000 74.000000"
 preserveAspectRatio="xMidYMid meet">

<g transform="translate(0.000000,74.000000) scale(0.100000,-0.100000)"
fill="#000000" stroke="none">
<path d="M70 528 c0 -47 39 -95 85 -104 31 -6 33 -8 28 -42 -4 -30 2 -46 26
-82 17 -25 31 -54 31 -65 0 -24 18 -45 37 -45 7 0 13 7 13 15 0 8 -7 15 -15
15 -8 0 -15 5 -15 10 0 6 23 10 50 10 28 0 50 -4 50 -10 0 -5 -7 -10 -15 -10
-8 0 -15 -7 -15 -15 0 -8 9 -15 19 -15 19 0 31 18 31 46 0 8 12 32 27 55 17
27 26 54 27 84 1 39 4 44 29 49 45 9 87 58 87 100 0 20 -4 36 -10 36 -5 0 -10
-6 -10 -13 0 -21 -31 -45 -80 -62 -29 -10 -46 -12 -50 -5 -8 13 -66 30 -100
30 -14 0 -43 -9 -64 -19 -36 -19 -41 -19 -77 -4 -22 8 -50 29 -64 47 l-25 31
0 -37z m173 -160 c20 -16 35 -78 18 -78 -6 0 -11 8 -11 18 0 11 -9 27 -20 37
-33 30 -22 49 13 23z m162 3 c3 -5 -3 -16 -13 -23 -10 -7 -22 -26 -26 -41 -9
-36 -25 -27 -18 10 8 44 42 77 57 54z"/>
</g>
</svg>
