<?xml version="1.0" standalone="no"?>
<!DOCTYPE svg PUBLIC "-//W3C//DTD SVG 20010904//EN"
 "http://www.w3.org/TR/2001/REC-SVG-20010904/DTD/svg10.dtd">
<svg version="1.0" xmlns="http://www.w3.org/2000/svg"
 width="512.000000pt" height="512.000000pt" viewBox="0 0 512.000000 512.000000"
 preserveAspectRatio="xMidYMid meet">

<g transform="translate(0.000000,512.000000) scale(0.100000,-0.100000)"
fill="#000000" stroke="none">
<path d="M3002 4535 c-35 -8 -86 -27 -113 -42 -27 -15 -321 -264 -654 -553
l-606 -525 -282 -5 -283 -5 -69 -34 c-90 -44 -162 -116 -206 -206 l-34 -70 -3
-619 c-3 -672 -3 -676 53 -771 32 -56 107 -127 165 -159 84 -46 160 -56 423
-56 l238 0 607 -526 c706 -613 686 -599 857 -599 92 0 106 3 167 32 117 55
201 151 238 271 20 63 20 99 20 1786 0 1123 -4 1736 -11 1765 -17 75 -60 149
-119 205 -68 65 -120 93 -209 112 -79 17 -98 16 -179 -1z"/>
<path d="M3912 3309 c-75 -38 -122 -113 -122 -199 0 -21 21 -78 55 -150 77
-162 97 -245 97 -400 0 -96 -5 -144 -21 -205 -26 -99 -89 -232 -144 -305 -22
-30 -46 -70 -53 -90 -49 -137 53 -279 200 -280 102 0 166 55 275 238 58 98
102 206 139 342 24 87 26 111 26 300 0 189 -2 213 -26 300 -36 135 -81 245
-136 336 -40 67 -55 82 -101 106 -66 35 -128 37 -189 7z"/>
</g>
</svg>
