<?xml version="1.0" standalone="no"?>
<!DOCTYPE svg PUBLIC "-//W3C//DTD SVG 20010904//EN"
 "http://www.w3.org/TR/2001/REC-SVG-20010904/DTD/svg10.dtd">
<svg version="1.0" xmlns="http://www.w3.org/2000/svg"
 width="512.000000pt" height="512.000000pt" viewBox="0 0 512.000000 512.000000"
 preserveAspectRatio="xMidYMid meet">

<g transform="translate(0.000000,512.000000) scale(0.100000,-0.100000)"
fill="#000000" stroke="none">
<path d="M3545 4736 c-82 -30 -145 -133 -130 -209 10 -46 48 -109 82 -133 15
-11 76 -44 135 -73 624 -305 1041 -929 1087 -1628 53 -797 -377 -1547 -1087
-1894 -59 -29 -120 -62 -135 -73 -34 -24 -72 -87 -82 -133 -24 -114 105 -238
226 -218 96 16 437 212 599 345 395 323 691 785 809 1265 203 827 -40 1676
-651 2271 -179 175 -371 311 -593 420 -143 71 -197 83 -260 60z"/>
<path d="M2090 4414 c-22 -9 -228 -208 -560 -539 l-525 -525 -410 0 c-266 0
-424 -4 -450 -11 -51 -14 -129 -92 -138 -139 -9 -43 -9 -1237 0 -1280 9 -47
87 -125 138 -139 26 -7 184 -11 450 -11 l410 0 520 -521 c349 -350 533 -527
560 -540 96 -45 206 -5 256 93 18 36 19 86 19 1758 0 1672 -1 1722 -19 1758
-49 95 -157 137 -251 96z"/>
<path d="M3212 4003 c-72 -35 -121 -127 -107 -202 15 -82 56 -123 196 -198
228 -123 386 -280 500 -497 92 -176 133 -341 133 -546 0 -205 -41 -370 -133
-546 -114 -217 -272 -374 -500 -497 -103 -55 -154 -95 -176 -136 -68 -132 27
-281 178 -281 44 0 72 9 157 50 388 190 698 565 813 985 45 163 52 221 52 425
0 123 -5 221 -14 265 -66 343 -210 615 -450 855 -130 130 -247 214 -401 290
-87 42 -112 50 -159 50 -31 0 -71 -8 -89 -17z"/>
<path d="M2920 3285 c-78 -35 -121 -99 -122 -179 -1 -88 23 -118 197 -244 70
-51 85 -67 115 -127 33 -66 35 -74 35 -175 0 -101 -2 -109 -35 -175 -31 -61
-45 -76 -119 -130 -166 -118 -194 -153 -193 -241 1 -81 46 -146 124 -178 54
-23 90 -20 172 16 155 66 279 187 361 353 61 123 85 221 85 355 0 298 -166
575 -420 697 -85 42 -149 51 -200 28z"/>
</g>
</svg>
